<?xml version="1.0" encoding="utf-8" ?><svg xmlns="http://www.w3.org/2000/svg" xmlns:xlink="http://www.w3.org/1999/xlink" width="20" height="20"><path fill="#B05A3A" transform="matrix(1 0 0 1 6.66667 2.5)" d="M2.7441 -0.5893Q2.984 -0.8434 3.3333 -0.8333Q3.6827 -0.8434 3.9226 -0.5893L7.2559 2.7441Q7.5101 2.984 7.5 3.3333Q7.5101 3.6827 7.2559 3.9226Q7.016 4.1767 6.6667 4.1667Q6.3173 4.1767 6.0774 3.9226L4.1667 2.0118L4.1667 10Q4.1767 10.3493 3.9226 10.5893Q3.6827 10.8434 3.3333 10.8333Q2.984 10.8434 2.7441 10.5893Q2.4899 10.3493 2.5 10L2.5 2.0118L0.5893 3.9226Q0.3493 4.1767 0 4.1667Q-0.3493 4.1767 -0.5893 3.9226Q-0.8434 3.6827 -0.8333 3.3333Q-0.8434 2.984 -0.5893 2.7441L2.7441 -0.5893Z" fill-rule="evenodd"/><path fill="#B05A3A" transform="matrix(1 0 0 1 4.16667 10)" d="M0.8333 0L0.8333 5L10.8333 5L10.8333 0Q10.8233 -0.3493 11.0774 -0.5893Q11.3173 -0.8434 11.6667 -0.8333Q12.016 -0.8434 12.2559 -0.5893Q12.5101 -0.3493 12.5 0L12.5 5.8333Q12.5101 6.1827 12.2559 6.4226Q12.016 6.6767 11.6667 6.6667L0 6.6667Q-0.3493 6.6767 -0.5893 6.4226Q-0.8434 6.1827 -0.8333 5.8333L-0.8333 0Q-0.8434 -0.3493 -0.5893 -0.5893Q-0.3493 -0.8434 0 -0.8333Q0.3493 -0.8434 0.5893 -0.5893Q0.8434 -0.3493 0.8333 0Z" fill-rule="evenodd"/></svg>