<svg xmlns="http://www.w3.org/2000/svg" width="20" height="18" viewBox="0 0 20 18" fill="none">
  <path d="M14.5768 3.3392Q12.2082 -0.8094 7.4763 -0.8332Q7.45 -0.8341 7.4231 -0.8335Q7.3962 -0.8341 7.37 -0.8332Q2.6381 -0.8094 0.2694 3.3392Q-2.1076 7.5027 0.2717 11.6648Q2.6548 15.8333 7.4231 15.8333Q12.1915 15.8333 14.5745 11.6648Q16.9539 7.5027 14.5768 3.3392ZM7.3796 0.8334Q7.4011 0.834 7.4231 0.8334Q7.4451 0.834 7.4667 0.8334Q11.2381 0.853 13.1294 4.1656Q15.0344 7.5021 13.1276 10.8376Q11.2245 14.1667 7.4231 14.1667Q3.6218 14.1667 1.7187 10.8376Q-0.1882 7.5021 1.7168 4.1656Q3.6081 0.853 7.3796 0.8334ZM8.2523 5L8.2523 3.75Q8.2624 3.4007 8.0083 3.1607Q7.7683 2.9066 7.419 2.9167Q7.0697 2.9066 6.8297 3.1607Q6.5756 3.4007 6.5857 3.75L6.5857 5Q6.5756 5.3493 6.8297 5.5893Q7.0514 5.8241 7.3665 5.8333Q7.0514 5.8426 6.8297 6.0774Q6.5756 6.3173 6.5857 6.6667L6.5857 11.25Q6.5756 11.5993 6.8297 11.8393Q7.0697 12.0934 7.419 12.0833Q7.7683 12.0934 8.0083 11.8393Q8.2624 11.5993 8.2523 11.25L8.2523 6.6667Q8.2624 6.3173 8.0083 6.0774Q7.7866 5.8426 7.4715 5.8333Q7.7866 5.8241 8.0083 5.5893Q8.2624 5.3493 8.2523 5Z" fill="#C4913C"/>
</svg>
