<?xml version="1.0" encoding="utf-8" ?><svg xmlns="http://www.w3.org/2000/svg" xmlns:xlink="http://www.w3.org/1999/xlink" width="20" height="20"><rect fill="none" stroke="#C4913C" stroke-width="1.6667" transform="matrix(1 0 0 1 4.16667 8.33333)" width="11.6667" height="8.3333" rx="2.5" ry="2.5"/><path fill="#C4913C" transform="matrix(1 0 0 1 6.66667 2.5)" d="M-0.8333 5.8333L-0.8333 3.3333Q-0.8333 1.6074 0.3871 0.3871Q1.6074 -0.8333 3.3333 -0.8333Q5.0592 -0.8333 6.2796 0.3871Q7.5 1.6074 7.5 3.3333L7.5 5.8333Q7.5101 6.1827 7.2559 6.4226Q7.016 6.6767 6.6667 6.6667Q6.3173 6.6767 6.0774 6.4226Q5.8233 6.1827 5.8333 5.8333L5.8333 3.3333Q5.8333 2.2978 5.1011 1.5656Q4.3689 0.8333 3.3333 0.8333Q2.2978 0.8333 1.5656 1.5656Q0.8333 2.2978 0.8333 3.3333L0.8333 5.8333Q0.8434 6.1827 0.5893 6.4226Q0.3493 6.6767 0 6.6667Q-0.3493 6.6767 -0.5893 6.4226Q-0.8434 6.1827 -0.8333 5.8333Z" fill-rule="evenodd"/></svg>