<?xml version="1.0" encoding="utf-8" ?><svg xmlns="http://www.w3.org/2000/svg" xmlns:xlink="http://www.w3.org/1999/xlink" width="80" height="12"><path fill="#FFF" d="M17 0L17 12Q17.0121 12.4192 16.7071 12.7071Q16.4192 13.0121 16 13Q15.5808 13.0121 15.2929 12.7071Q14.9879 12.4192 15 12L15 0Q14.9879 -0.4192 15.2929 -0.7071Q15.5808 -1.0121 16 -1Q16.4192 -1.0121 16.7071 -0.7071Q17.0121 -0.4192 17 0ZM49 0L49 12Q49.0121 12.4192 48.7071 12.7071Q48.4192 13.0121 48 13Q47.5808 13.0121 47.2929 12.7071Q46.9879 12.4192 47 12L47 0Q46.9879 -0.4192 47.2929 -0.7071Q47.5808 -1.0121 48 -1Q48.4192 -1.0121 48.7071 -0.7071Q49.0121 -0.4192 49 0ZM33 1L33 11Q33.0121 11.4192 32.7071 11.7071Q32.4192 12.0121 32 12Q31.5808 12.0121 31.2929 11.7071Q30.9879 11.4192 31 11L31 1Q30.9879 0.5808 31.2929 0.2929Q31.5808 -0.0121 32 0Q32.4192 -0.0121 32.7071 0.2929Q33.0121 0.5808 33 1ZM9 3L9 9Q9.0121 9.4192 8.7071 9.7071Q8.4192 10.0121 8 10Q7.5808 10.0121 7.2929 9.7071Q6.9879 9.4192 7 9L7 3Q6.9879 2.5808 7.2929 2.2929Q7.5808 1.9879 8 2Q8.4192 1.9879 8.7071 2.2929Q9.0121 2.5808 9 3ZM57 3L57 9Q57.0121 9.4192 56.7071 9.7071Q56.4192 10.0121 56 10Q55.5808 10.0121 55.2929 9.7071Q54.9879 9.4192 55 9L55 3Q54.9879 2.5808 55.2929 2.2929Q55.5808 1.9879 56 2Q56.4192 1.9879 56.7071 2.2929Q57.0121 2.5808 57 3ZM73 3L73 9Q73.0121 9.4192 72.7071 9.7071Q72.4192 10.0121 72 10Q71.5808 10.0121 71.2929 9.7071Q70.9879 9.4192 71 9L71 3Q70.9879 2.5808 71.2929 2.2929Q71.5808 1.9879 72 2Q72.4192 1.9879 72.7071 2.2929Q73.0121 2.5808 73 3ZM25 4L25 8Q25.0121 8.4192 24.7071 8.7071Q24.4192 9.0121 24 9Q23.5808 9.0121 23.2929 8.7071Q22.9879 8.4192 23 8L23 4Q22.9879 3.5808 23.2929 3.2929Q23.5808 2.9879 24 3Q24.4192 2.9879 24.7071 3.2929Q25.0121 3.5808 25 4ZM41 4L41 8Q41.0121 8.4192 40.7071 8.7071Q40.4192 9.0121 40 9Q39.5808 9.0121 39.2929 8.7071Q38.9879 8.4192 39 8L39 4Q38.9879 3.5808 39.2929 3.2929Q39.5808 2.9879 40 3Q40.4192 2.9879 40.7071 3.2929Q41.0121 3.5808 41 4ZM65 5L65 7Q65.0121 7.4192 64.7071 7.7071Q64.4192 8.0121 64 8Q63.5808 8.0121 63.2929 7.7071Q62.9879 7.4192 63 7L63 5Q62.9879 4.5808 63.2929 4.2929Q63.5808 3.9879 64 4Q64.4192 3.9879 64.7071 4.2929Q65.0121 4.5808 65 5ZM81 5L81 7Q81.0121 7.4192 80.7071 7.7071Q80.4192 8.0121 80 8Q79.5808 8.0121 79.2929 7.7071Q78.9879 7.4192 79 7L79 5Q78.9879 4.5808 79.2929 4.2929Q79.5808 3.9879 80 4Q80.4192 3.9879 80.7071 4.2929Q81.0121 4.5808 81 5Z" fill-rule="evenodd"/></svg>