<?xml version="1.0" encoding="utf-8" ?><svg xmlns="http://www.w3.org/2000/svg" xmlns:xlink="http://www.w3.org/1999/xlink" width="16" height="16"><path fill="#C4913C" transform="matrix(1 0 0 1 2.7454 2.74567)" d="M5.8213 6.7165Q6.6587 6.7165 7.2463 6.1199L9.2499 4.1163Q9.8421 3.5244 9.8423 2.6874Q9.8424 1.8503 9.2505 1.2584Q8.6586 0.6665 7.8216 0.6667Q6.9845 0.6668 6.3928 1.2589L5.5927 2.0591Q5.4007 2.2624 5.1213 2.2543Q4.8418 2.2624 4.6499 2.0591Q4.4466 1.8671 4.4546 1.5877Q4.4466 1.3082 4.6499 1.1163L5.4497 0.3164Q6.4319 -0.6664 7.8213 -0.6667Q9.2108 -0.6669 10.1933 0.3156Q11.1758 1.2981 11.1756 2.6876Q11.1754 4.0771 10.1927 5.0591L8.1963 7.0554Q7.217 8.0499 5.8213 8.0499Q4.4256 8.0499 3.4463 7.0554Q3.2444 6.862 3.2546 6.5826Q3.2487 6.303 3.4535 6.1127Q3.647 5.9108 3.9264 5.921Q4.2059 5.9151 4.3963 6.1199Q4.9839 6.7165 5.8213 6.7165ZM6.1129 4.3888Q5.5253 3.7921 4.6879 3.7921Q3.8505 3.7921 3.2629 4.3888L1.2593 6.3924Q0.6669 6.9843 0.6667 7.8214Q0.6665 8.6586 1.2584 9.2505Q1.8504 9.8425 2.6875 9.8423Q3.5246 9.8421 4.1163 9.2498L4.9165 8.4496Q5.1085 8.2463 5.3879 8.2543Q5.6674 8.2463 5.8593 8.4496Q6.0626 8.6415 6.0546 8.921Q6.0626 9.2005 5.8593 9.3924L5.0596 10.1922Q4.0774 11.1753 2.6878 11.1756Q1.2982 11.1759 0.3156 10.1933Q-0.667 9.2107 -0.6667 7.8211Q-0.6663 6.4315 0.3165 5.4496L2.3129 3.4532Q3.2922 2.4588 4.6879 2.4588Q6.0836 2.4588 7.0629 3.4532Q7.2648 3.6467 7.2546 3.9261Q7.2605 4.2056 7.0557 4.396Q6.8622 4.5978 6.5828 4.5876Q6.3033 4.5935 6.1129 4.3888Z" fill-rule="evenodd"/></svg>