<svg xmlns="http://www.w3.org/2000/svg" width="20" height="20" viewBox="0 0 20 19" fill="none">
  <path d="M0.0323 12.8679Q0.0679 12.725 0.1406 12.5969Q0.213 12.4686 0.3173 12.3646L12.776 -0.0941Q13.7666 -1.0837 15.1667 -1.0833Q15.3387 -1.0833 15.5059 -1.0676Q16.6938 -0.9561 17.5569 -0.0929Q18.547 0.8971 18.5473 2.2973Q18.5477 3.6974 17.5577 4.6883L5.0994 17.1467Q4.9953 17.2509 4.8671 17.3234Q4.739 17.3961 4.5961 17.4316L0.2628 18.515Q0.1334 18.5474 0 18.5473Q-0.1334 18.5474 -0.2628 18.515Q-0.7065 18.4175 -0.929 18.0213Q-1.1738 17.6386 -1.051 17.2012L0.0323 12.8679ZM1.4889 15.9751L2.0616 13.6845L11.375 4.371L13.0929 6.089L3.7795 15.4024L1.4889 15.9751ZM14.625 4.5569L16.0256 3.1563Q16.3808 2.8008 16.3806 2.2978Q16.3805 1.7948 16.0248 1.4391Q15.7138 1.1281 15.3033 1.0896Q15.2369 1.0834 15.1662 1.0833Q14.6632 1.0832 14.3073 1.4387L12.9071 2.839L14.625 4.5569Z" fill="#4E7D8C"/>
</svg>
